<svg width="473" height="473" viewBox="0 0 473 473" fill="none" xmlns="http://www.w3.org/2000/svg">
<g clip-path="url(#clip0_173_646)">
<path d="M96.7808 230.53C91.1259 226.63 82.2546 223.735 70.1624 221.841C63.6656 220.731 59.1041 219.393 56.4734 217.831C53.8381 216.27 52.525 214.099 52.525 211.313C52.525 205.633 57.6721 202.793 67.9754 202.793C73.3513 202.793 78.8644 203.353 84.5193 204.463C90.1697 205.578 95.239 207.14 99.7181 209.142L100.894 190.931C96.5292 189.038 91.3501 187.536 85.3611 186.42C79.3722 185.31 73.1866 184.75 66.8042 184.75C54.4878 184.75 44.9714 186.785 38.255 190.849H38.2504C31.534 194.914 28.1758 200.785 28.1758 208.473C28.1758 215.601 30.7791 221.031 35.9857 224.764C41.1922 228.496 49.8394 231.309 61.9316 233.202C68.4238 234.094 73.1545 235.433 76.1238 237.212C79.0886 238.992 80.5755 241.5 80.5755 244.727C80.5755 251.19 74.6369 254.418 62.7734 254.418C57.0636 254.418 51.2119 253.753 45.223 252.415C39.2295 251.081 33.5517 249.188 28.1758 246.734L27 265.783C36.7406 270.125 48.8877 272.296 63.446 272.296C76.6546 272.296 86.9304 270.071 94.2645 265.615C101.594 261.163 105.263 254.923 105.263 246.903C105.263 239.889 102.431 234.431 96.7808 230.53Z" fill="#00375E"/>
<path d="M277.112 184.75C266.365 184.75 258.052 188.041 252.173 194.609C246.294 201.181 242.963 209.538 242.18 219.67H241.339L235.126 187.258H219.51V269.788H242.18V233.029C242.18 224.454 244.418 217.299 248.897 211.559C253.371 205.824 259.584 202.957 267.536 202.957C274.257 202.957 279.432 204.768 283.074 208.387C286.711 212.01 288.532 217.103 288.532 223.676V269.788H311.037V221.505C311.037 209.921 308.013 200.899 301.969 194.44C295.921 187.982 287.859 184.75 277.112 184.75Z" fill="#00375E"/>
<path d="M353.115 187.258H330.445V205.469V269.797H353.115V187.258Z" fill="#00375E"/>
<path d="M331.79 176.63C334.137 178.469 337.61 179.388 341.865 179.388C346.12 179.388 349.423 178.469 351.775 176.63C354.126 174.791 355.302 172.142 355.302 168.692C355.302 165.242 354.126 162.597 351.775 160.758C349.418 158.919 346.229 158 341.865 158C337.5 158 334.142 158.919 331.79 160.758C329.439 162.593 328.263 165.237 328.263 168.692C328.263 172.147 329.439 174.791 331.79 176.63Z" fill="#00375E"/>
<path d="M434.229 252.756C429.635 253.758 424.991 254.258 420.288 254.258C411.22 254.258 404.133 252.087 399.041 247.745C393.949 243.403 391.4 236.999 391.4 228.532C391.4 220.066 393.949 213.662 399.041 209.315C404.138 204.973 411.22 202.802 420.288 202.802C424.767 202.802 429.329 203.303 433.977 204.304C438.621 205.305 442.903 206.703 446.824 208.482L448 190.271C440.048 186.598 430.477 184.759 419.282 184.759C403.831 184.759 391.542 188.437 382.419 195.788C373.292 203.143 368.73 214.054 368.73 228.537C368.73 243.02 373.292 253.935 382.419 261.286C391.542 268.637 403.831 272.31 419.282 272.31C424.877 272.31 430.138 271.837 435.066 270.89C439.993 269.943 444.308 268.633 448 266.962L446.824 248.582C443.018 250.362 438.818 251.755 434.229 252.756Z" fill="#00375E"/>
<path d="M160.207 182.438V202.757C174.513 202.757 186.107 214.295 186.107 228.523H186.102C186.102 242.761 174.504 254.295 160.202 254.295C145.9 254.295 134.302 242.756 134.302 228.528H134.297C134.297 214.295 145.895 202.761 160.198 202.761V182.443C134.613 182.443 113.869 203.075 113.869 228.533H113.874H113.878C113.878 253.985 134.618 274.623 160.207 274.623C185.796 274.623 206.535 253.99 206.535 228.533C206.535 203.075 185.796 182.443 160.207 182.443V182.438Z" fill="#00375E"/>
<path d="M362.833 290.785H362.828L353.115 314.522H357.411L359.662 308.823H373.571L375.822 314.522H380.118L370.368 290.785H362.833ZM372.473 305.979H360.783L366.58 291.227H366.681L372.477 305.979H372.473Z" fill="#00375E"/>
<path d="M397.261 290.785H393.34V314.522H411.408V311.336H397.261V290.785Z" fill="#00375E"/>
<path d="M443.658 304.722C443.658 307.048 442.986 308.828 441.645 310.061C440.305 311.295 438.36 311.909 435.816 311.909C433.272 311.909 431.328 311.295 429.987 310.061C428.642 308.832 427.974 307.053 427.974 304.722V290.785H424.053V304.722C424.053 308.027 425.065 310.562 427.087 312.337C429.109 314.112 432.019 315 435.812 315C439.605 315 442.514 314.112 444.537 312.337H444.546C446.568 310.562 447.579 308.022 447.579 304.722V290.785H443.658V304.722Z" fill="#00375E"/>
</g>
<path fill-rule="evenodd" clip-rule="evenodd" d="M-1.03377e-05 236.5C-1.60471e-05 367.115 105.885 473 236.5 473C367.115 473 473 367.115 473 236.5C473 105.885 367.115 -4.62837e-06 236.5 -1.03377e-05C105.885 -1.60471e-05 -4.62837e-06 105.885 -1.03377e-05 236.5ZM101.805 236.5C101.805 310.89 162.11 371.195 236.5 371.195C310.89 371.195 371.195 310.89 371.195 236.5C371.195 162.11 310.89 101.805 236.5 101.805C162.11 101.805 101.805 162.11 101.805 236.5Z" fill="url(#paint0_angular_173_646)" fill-opacity="0.1"/>
<path fill-rule="evenodd" clip-rule="evenodd" d="M440 236.5C440 124.11 348.89 33 236.5 33.0001C124.11 33.0001 33.0001 124.11 33.0001 236.5C33.0001 348.89 124.11 440 236.5 440C348.89 440 440 348.89 440 236.5ZM352.401 236.5C352.401 172.49 300.51 120.599 236.5 120.599C172.49 120.599 120.599 172.49 120.599 236.5C120.599 300.51 172.49 352.401 236.5 352.401C300.51 352.401 352.401 300.51 352.401 236.5Z" fill="url(#paint1_angular_173_646)" fill-opacity="0.1"/>
<defs>
<radialGradient id="paint0_angular_173_646" cx="0" cy="0" r="1" gradientUnits="userSpaceOnUse" gradientTransform="translate(236.5 236.5) rotate(-180) scale(236.5 236.5)">
<stop stop-color="#013963" stop-opacity="0"/>
<stop offset="1" stop-color="#013962"/>
</radialGradient>
<radialGradient id="paint1_angular_173_646" cx="0" cy="0" r="1" gradientUnits="userSpaceOnUse" gradientTransform="translate(236.5 236.5) scale(203.5 203.5)">
<stop stop-color="#013963" stop-opacity="0"/>
<stop offset="1" stop-color="#013962"/>
</radialGradient>
<clipPath id="clip0_173_646">
<rect width="421" height="157" fill="white" transform="translate(27 158)"/>
</clipPath>
</defs>
</svg>
