<svg width="107" height="40" viewBox="0 0 107 40" fill="none" xmlns="http://www.w3.org/2000/svg">
<g clip-path="url(#clip0_98_570)">
<path d="M17.707 18.479C16.272 17.4852 14.0209 16.7476 10.9525 16.2652C9.30394 15.9823 8.14646 15.6413 7.47891 15.2436C6.81019 14.8458 6.477 14.2926 6.477 13.5829C6.477 12.1357 7.78308 11.4121 10.3976 11.4121C11.7617 11.4121 13.1606 11.5547 14.5956 11.8377C16.0294 12.1218 17.3157 12.5195 18.4523 13.0298L18.7507 8.39C17.6431 7.90758 16.3289 7.52489 14.8092 7.24078C13.2895 6.95782 11.7199 6.81519 10.1004 6.81519C6.97505 6.81519 4.56025 7.33355 2.85596 8.36912H2.8548C1.15051 9.4047 0.298367 10.9007 0.298367 12.8593C0.298367 14.6753 0.958953 16.0588 2.28013 17.0097C3.6013 17.9606 5.79551 18.6773 8.86393 19.1597C10.5113 19.387 11.7118 19.728 12.4652 20.1814C13.2175 20.6348 13.5948 21.2738 13.5948 22.096C13.5948 23.7427 12.0879 24.5649 9.07755 24.5649C7.62867 24.5649 6.1438 24.3956 4.62411 24.0546C3.10325 23.7148 1.6625 23.2324 0.298367 22.6074L0 27.4605C2.47168 28.5668 5.55404 29.12 9.24821 29.12C12.5999 29.12 15.2074 28.5529 17.0684 27.4176C18.9283 26.2835 19.8594 24.6936 19.8594 22.6503C19.8594 20.8633 19.1408 19.4728 17.707 18.479Z" fill="white"/>
<path d="M63.4662 6.81519C60.7391 6.81519 58.6297 7.65362 57.1378 9.327C55.646 11.0015 54.8008 13.1307 54.6023 15.7121H54.3887L52.8121 7.45416H48.8497V28.481H54.6023V19.1157C54.6023 16.9309 55.17 15.1079 56.3066 13.6456C57.442 12.1844 59.0186 11.4538 61.0363 11.4538C62.7418 11.4538 64.0548 11.9154 64.979 12.8373C65.9019 13.7604 66.364 15.058 66.364 16.7326V28.481H72.0747V16.1794C72.0747 13.2281 71.3074 10.9296 69.7737 9.28409C68.2389 7.63854 66.1933 6.81519 63.4662 6.81519Z" fill="white"/>
<path d="M82.7521 7.45435H76.9995V12.0941V28.4835H82.7521V7.45435Z" fill="white"/>
<path d="M77.3409 4.74647C77.9365 5.21497 78.8176 5.44922 79.8973 5.44922C80.977 5.44922 81.8152 5.21497 82.412 4.74647C83.0087 4.27797 83.3071 3.60305 83.3071 2.72403C83.3071 1.84501 83.0087 1.17125 82.412 0.702751C81.8141 0.23425 81.0049 0 79.8973 0C78.7898 0 77.9376 0.23425 77.3409 0.702751C76.7442 1.17009 76.4458 1.84385 76.4458 2.72403C76.4458 3.60421 76.7442 4.27797 77.3409 4.74647Z" fill="white"/>
<path d="M103.335 24.1417C102.169 24.3968 100.991 24.5244 99.7973 24.5244C97.4963 24.5244 95.698 23.9713 94.4058 22.8649C93.1137 21.7586 92.467 20.127 92.467 17.97C92.467 15.8131 93.1137 14.1814 94.4058 13.074C95.6992 11.9677 97.4963 11.4145 99.7973 11.4145C100.934 11.4145 102.091 11.5421 103.271 11.7972C104.449 12.0523 105.536 12.4083 106.531 12.8618L106.829 8.22197C104.812 7.28613 102.383 6.81763 99.5419 6.81763C95.6214 6.81763 92.503 7.75463 90.1881 9.62747C87.872 11.5015 86.7145 14.2812 86.7145 17.9712C86.7145 21.6612 87.872 24.4421 90.1881 26.3149C92.503 28.1878 95.6214 29.1236 99.5419 29.1236C100.962 29.1236 102.297 29.003 103.547 28.7618C104.798 28.5206 105.892 28.1866 106.829 27.761L106.531 23.0783C105.565 23.5317 104.499 23.8866 103.335 24.1417Z" fill="white"/>
<path d="M33.8014 6.22607V11.4028C37.4317 11.4028 40.3736 14.3425 40.3736 17.9676H40.3725C40.3725 21.595 37.4294 24.5336 33.8003 24.5336C30.1711 24.5336 27.2281 21.5938 27.2281 17.9687H27.2269C27.2269 14.3425 30.1699 11.4039 33.7991 11.4039V6.22723C27.307 6.22723 22.0432 11.484 22.0432 17.9699H22.0444H22.0455C22.0455 24.4547 27.3082 29.7126 33.8014 29.7126C40.2947 29.7126 45.5573 24.4559 45.5573 17.9699C45.5573 11.484 40.2947 6.22723 33.8014 6.22723V6.22607Z" fill="white"/>
<path d="M85.218 33.8306H85.2168L82.7521 39.8782H83.8422L84.4134 38.4263H87.9427L88.5139 39.8782H89.6041L87.1301 33.8306H85.218ZM87.6641 37.7015H84.6978L86.1688 33.9431H86.1943L87.6653 37.7015H87.6641Z" fill="white"/>
<path d="M93.9542 33.8306H92.9592V39.8782H97.5439V39.0664H93.9542V33.8306Z" fill="white"/>
<path d="M105.728 37.3814C105.728 37.974 105.557 38.4274 105.217 38.7417C104.877 39.056 104.383 39.2125 103.738 39.2125C103.092 39.2125 102.599 39.056 102.259 38.7417C101.917 38.4286 101.748 37.9752 101.748 37.3814V33.8306H100.753V37.3814C100.753 38.2233 101.009 38.8693 101.523 39.3215C102.036 39.7738 102.774 39.9999 103.736 39.9999C104.699 39.9999 105.437 39.7738 105.95 39.3215H105.953C106.466 38.8693 106.722 38.2222 106.722 37.3814V33.8306H105.728V37.3814Z" fill="white"/>
</g>
<defs>
<clipPath id="clip0_98_570">
<rect width="106.829" height="40" fill="white"/>
</clipPath>
</defs>
</svg>
