<svg width="56" height="56" viewBox="0 0 56 56" fill="none" xmlns="http://www.w3.org/2000/svg">
<g clip-path="url(#clip0_98_658)">
<path d="M0.632386 56C0.117096 55.6722 -0.00240743 55.1986 -0.000214707 54.6054C0.0173271 48.5129 0.00307438 42.4215 0.014038 36.3291C0.0184235 33.9532 0.829732 31.8866 2.62667 30.3035C3.29874 29.7114 4.10128 29.229 4.91259 28.8376C6.86301 27.8969 8.85949 27.0527 10.8231 26.1373C11.1268 25.9958 11.4316 25.7316 11.5993 25.4444C13.723 21.811 15.8269 18.1645 17.9253 14.5169C18.9658 12.7079 20.4919 11.673 22.5925 11.5458C23.7733 11.4745 24.8631 11.776 25.8608 12.413C26.2368 12.6531 26.6195 12.8823 27.0854 13.1706C27.1052 12.8757 27.126 12.7025 27.126 12.5292C27.1282 11.07 27.1161 9.61071 27.1348 8.15145C27.1402 7.73813 27.0361 7.55832 26.5833 7.58354C25.9288 7.62081 25.2709 7.58573 24.6142 7.5956C24.1187 7.60218 23.7919 7.39716 23.6067 6.92572C22.8732 5.063 22.1211 3.20686 21.3876 1.34524C21.0532 0.495556 21.4249 0.00438545 22.3908 0.00328909C27.2959 0 32.201 0 37.1073 0C40.609 0 44.1097 0 47.6115 0C48.7057 0 49.0423 0.471436 48.6454 1.47351C47.936 3.26716 47.2081 5.05313 46.5064 6.84898C46.2981 7.3829 45.9505 7.61753 45.3815 7.59669C44.7445 7.57367 44.1032 7.62191 43.4673 7.58135C42.9783 7.54955 42.9487 7.80062 42.9498 8.17557C42.9586 11.0941 42.9542 14.0126 42.9542 16.9311C42.9542 18.5362 42.9695 20.1413 42.9443 21.7463C42.9377 22.1717 43.0846 22.3998 43.4464 22.6059C45.9494 24.0268 48.4371 25.4762 50.9379 26.9025C52.3072 27.6832 52.9212 28.8146 52.7107 30.3977C52.6811 30.6203 52.7962 30.9339 52.9563 31.0972C53.7709 31.9327 54.626 32.7286 55.4549 33.5498C55.6588 33.7515 55.82 33.996 56.0009 34.2208V34.5486C55.9625 34.5858 55.9132 34.6165 55.888 34.6615C52.7699 40.0764 49.6507 45.4914 46.5426 50.9118C46.2378 51.4424 45.8442 51.6156 45.2368 51.5575C43.8773 51.4271 42.5123 51.3536 41.1485 51.2791C40.973 51.2692 40.7549 51.3536 40.6178 51.4676C39.2748 52.5925 38.0326 52.7076 36.4999 51.824C29.1159 47.5635 21.7264 43.3118 14.3523 39.0338C13.1474 38.3343 11.9611 37.6798 10.5172 37.6173C9.65874 37.58 8.80686 37.3969 7.89579 37.2708C7.93306 37.5142 7.94512 37.6754 7.9835 37.83C9.38574 43.4006 10.7891 48.9712 12.1968 54.5407C12.4106 55.3849 12.3722 55.5143 11.6859 56H0.632386ZM33.8171 48.3496C38.0885 40.9634 42.3139 33.6561 46.5612 26.3094C45.2587 25.5573 44.0242 24.8447 42.7448 24.1057C42.6417 24.4006 42.5726 24.6046 42.4992 24.8074C41.1737 28.489 37.264 30.6554 33.4356 29.8309C29.7759 29.0426 27.1775 25.8621 27.1501 22.1125C27.1348 19.9428 27.1359 17.772 27.1567 15.6023C27.1611 15.1583 27.0207 14.916 26.5043 14.8491C22.2965 22.1147 18.0755 29.4044 13.8041 36.7786C20.4787 40.6378 27.1084 44.4706 33.8182 48.3485L33.8171 48.3496ZM28.8286 7.59341C28.8286 7.84009 28.8286 7.98481 28.8286 8.12953C28.8286 12.7781 28.8264 17.4267 28.8352 22.0753C28.8352 22.4546 28.8813 22.8383 28.9481 23.2122C29.4908 26.2919 32.4115 28.4703 35.6546 28.2237C38.7178 27.9901 41.2537 25.2733 41.2592 22.1937C41.268 17.5264 41.2625 12.8603 41.2614 8.19312C41.2614 8.00235 41.2427 7.81049 41.2307 7.59231C39.5949 7.59231 38.0282 7.60985 36.4626 7.58135C35.9846 7.57258 35.8344 7.70852 35.841 8.19312C35.8662 10.1611 35.8519 12.1302 35.8508 14.0992C35.8508 14.8097 35.8607 15.5212 35.8399 16.2316C35.8267 16.7053 35.5351 16.9607 35.0768 16.9991C34.6394 17.0364 34.2874 16.7042 34.2458 16.2415C34.2293 16.0606 34.2381 15.8775 34.2381 15.6944C34.2381 13.1783 34.2337 10.6632 34.2436 8.14707C34.2447 7.78308 34.1953 7.55832 33.7447 7.58244C33.145 7.61533 32.542 7.59012 31.9412 7.59012C30.926 7.59012 29.9107 7.59012 28.8286 7.59012V7.59341ZM4.72949 54.2524C4.74703 54.0013 4.77444 53.7689 4.77554 53.5365C4.78212 52.5147 4.77006 51.4939 4.7865 50.4721C4.79527 49.9031 5.1198 49.5676 5.59671 49.5753C6.07034 49.583 6.39596 49.9371 6.40144 50.4886C6.41022 51.5279 6.40144 52.5673 6.40473 53.6077C6.40473 53.8182 6.42228 54.0298 6.43105 54.2316H10.3604C10.3209 54.0167 10.3001 53.8544 10.2617 53.6965C8.91869 48.2794 7.57565 42.8612 6.22603 37.4452C6.17888 37.2577 6.1142 37.0516 5.9925 36.9101C5.47063 36.2995 5.4509 36.1657 5.8412 35.4717C7.01979 33.3766 8.19619 31.2792 9.3693 29.1808C9.4581 29.0229 9.51511 28.8464 9.64339 28.5427C8.17755 29.1906 6.85753 29.7553 5.55396 30.3528C3.01917 31.5149 1.69586 33.484 1.69257 36.2907C1.68489 42.0729 1.69038 47.854 1.69038 53.6362C1.69038 53.8314 1.69038 54.0265 1.69038 54.2524H4.72949ZM7.80918 35.5517C9.14893 35.7447 10.4273 35.8993 11.6925 36.1262C12.1749 36.2129 12.3657 36.021 12.5773 35.6548C16.6206 28.6348 20.6739 21.6192 24.7239 14.6035C25.1449 13.8745 25.1251 13.8218 24.316 13.4973C22.4237 12.7386 20.4765 13.4644 19.389 15.3546C15.6197 21.902 11.8558 28.4528 8.09094 35.0025C8.00213 35.1571 7.92868 35.3193 7.81027 35.5517H7.80918ZM35.2752 49.1762C35.9594 49.5753 36.57 49.9338 37.1829 50.289C38.458 51.028 39.1926 50.8372 39.9282 49.5654C42.417 45.2633 44.9035 40.959 47.3911 36.6547C48.5303 34.6845 49.6727 32.7155 50.8052 30.742C51.2865 29.9033 51.2142 29.1172 50.5256 28.6436C49.7374 28.1009 48.8855 27.6514 48.0029 27.1273C43.7501 34.4959 39.5302 41.8054 35.2752 49.1762ZM46.7388 1.72567H23.3567C23.8676 3.02048 24.3642 4.2484 24.8335 5.48729C24.9574 5.81291 25.1361 5.91707 25.4792 5.91597C31.8623 5.9061 38.2442 5.90501 44.6272 5.91597C44.9956 5.91597 45.1798 5.80962 45.3102 5.46098C45.7181 4.3701 46.1632 3.29347 46.5908 2.21027C46.6489 2.06335 46.684 1.90877 46.7388 1.72677V1.72567ZM41.8041 49.6433C42.8588 49.7003 43.7501 49.7211 44.636 49.8077C45.0855 49.8516 45.3146 49.697 45.5328 49.3155C48.1334 44.7787 50.7493 40.2519 53.3641 35.7239C53.8414 34.8965 53.7387 34.155 53.056 33.4994C52.657 33.1167 52.2557 32.7363 51.8095 32.3098C48.459 38.115 45.1677 43.8172 41.8052 49.6433H41.8041Z" fill="#01A7A4"/>
<path d="M19.0415 34.4917C19.3649 34.6364 19.5711 34.7077 19.7563 34.814C22.3449 36.3051 24.9301 37.8027 27.5186 39.2927C27.8946 39.5087 28.2148 39.7948 28.0679 40.2421C27.9802 40.5096 27.7181 40.8254 27.4671 40.9054C27.2281 40.9811 26.8706 40.8309 26.6185 40.6872C24.1824 39.2981 21.7561 37.8893 19.3288 36.4849C19.093 36.3478 18.842 36.2261 18.6326 36.0562C18.3464 35.8238 18.1546 35.496 18.3727 35.1484C18.5372 34.8864 18.8233 34.7 19.0415 34.4917Z" fill="#01A7A4"/>
<path d="M30.2169 40.9785C30.4877 41.0673 30.6357 41.0914 30.7585 41.1594C31.4404 41.5388 32.1256 41.9126 32.7911 42.3194C33.2483 42.5989 33.359 43.0879 33.1091 43.4925C32.8744 43.8729 32.414 44.0023 31.9612 43.7578C31.2748 43.3872 30.6028 42.9892 29.9351 42.5869C29.5799 42.3731 29.4286 42.0047 29.5897 41.6495C29.7147 41.3732 30.0206 41.1781 30.2169 40.9785Z" fill="#01A7A4"/>
<path d="M38.2455 22.1454C38.2422 23.871 36.7885 25.3226 35.0694 25.3182C33.3547 25.3138 31.8746 23.8535 31.8614 22.1541C31.8483 20.4131 33.3415 18.9418 35.1297 18.9341C36.8455 18.9264 38.2499 20.3736 38.2455 22.1465V22.1454ZM36.5593 22.1179C36.5648 21.2431 35.9015 20.594 34.9959 20.5863C34.2285 20.5798 33.5608 21.2562 33.5421 22.0609C33.5224 22.892 34.2065 23.6134 35.0299 23.6287C35.8686 23.6452 36.5549 22.9665 36.5593 22.1169V22.1179Z" fill="#01A7A4"/>
</g>
<defs>
<clipPath id="clip0_98_658">
<rect width="56" height="56" fill="white"/>
</clipPath>
</defs>
</svg>
