<svg width="56" height="56" viewBox="0 0 56 56" fill="none" xmlns="http://www.w3.org/2000/svg">
<g clip-path="url(#clip0_98_681)">
<path d="M31.967 53.0231C31.7424 55.0043 30.6183 55.9949 28.5948 55.9949C27.4725 55.9949 26.3476 56.0105 25.2252 55.9897C23.5767 55.9586 22.794 55.3006 22.4881 53.6527C22.2367 52.2951 22.0889 50.9167 21.7831 49.572C21.6898 49.1653 21.2854 48.7533 20.9174 48.4994C18.6908 46.9604 16.6639 47.248 14.8288 49.2249C14.5125 49.5669 14.0745 49.7975 13.6805 50.0643C12.4597 50.8934 11.3114 50.8597 10.272 49.8648C8.86718 48.5201 7.49343 47.147 6.15077 45.7427C5.15545 44.7037 5.11139 43.5456 5.92786 42.3304C6.21558 41.9004 6.52661 41.4858 6.82988 41.0661C8.8957 38.1953 8.91125 38.1876 7.45973 34.9722C7.30421 34.6277 6.82988 34.2934 6.44885 34.2105C5.05695 33.91 3.64173 33.7338 2.23946 33.4773C0.762023 33.2078 0.0492245 32.4021 0.0258966 30.9071C-0.00520735 28.9639 -0.00779935 27.0207 0.0258966 25.0776C0.0518165 23.6551 0.762023 22.839 2.16429 22.5721C3.56397 22.3053 4.98697 22.1498 6.3685 21.8208C6.80914 21.7171 7.27311 21.2819 7.51416 20.8725C7.9237 20.173 8.25547 19.3957 8.44728 18.608C8.56651 18.1158 8.53022 17.4473 8.2788 17.0302C7.58933 15.8876 6.73397 14.8486 5.97193 13.7475C5.0414 12.4028 5.12953 11.3353 6.28037 10.1539C7.57637 8.82475 8.88533 7.50598 10.2202 6.2157C11.2751 5.19488 12.4078 5.10679 13.6131 5.93588C14.7873 6.74166 15.9019 7.63811 17.1019 8.40243C17.4493 8.62266 18.0014 8.5268 18.4627 8.56307C18.5379 8.56825 18.6131 8.4698 18.696 8.45943C21.4954 8.02675 22.2341 6.08097 22.2989 3.60924C22.3118 3.09624 22.4311 2.58065 22.5477 2.07801C22.851 0.774784 23.6675 0.0726461 25.0205 0.0415551C26.7467 0.000100516 28.4782 0.0804188 30.2045 0.00787326C31.4357 -0.043945 31.9903 0.406874 31.8685 1.65569C31.8271 2.07542 31.8633 2.50033 31.8633 2.94856C33.346 3.15583 34.7223 3.26206 36.0624 3.54706C41.7518 4.7622 46.4951 7.59925 50.1706 12.1126C50.8549 12.9547 51.4199 13.1308 52.3219 12.6386C52.7341 12.4132 53.1903 12.1852 53.6465 12.1411C54.0508 12.1023 54.6884 12.1903 54.8439 12.4494C55.0047 12.7137 54.7999 13.3148 54.5822 13.662C54.3644 14.0066 53.9342 14.2164 53.5998 14.4937C53.2706 14.7657 52.9492 15.0481 52.5682 15.372C56.9098 23.5593 57.2934 31.8632 52.8196 40.0219C48.3692 48.1367 41.2464 52.3314 31.9696 53.0283L31.967 53.0231ZM29.9919 42.1646C25.7333 42.6206 21.9801 41.6154 18.7893 38.8975C15.5623 36.1511 13.8594 32.6223 13.7375 28.3758C13.6313 24.6734 14.8106 21.401 17.2549 18.6288C20.6089 14.8253 24.9168 13.3692 29.979 13.8174V1.83965C28.4549 1.83965 26.9982 1.88369 25.5467 1.8241C24.6576 1.78783 24.3103 2.17388 24.1962 2.99261C23.9889 4.48756 23.6882 5.97216 23.5093 7.4697C23.4031 8.35839 23.0117 8.81957 22.146 9.09939C20.9225 9.4958 19.7769 10.1409 18.5509 10.5348C18.0299 10.7032 17.2704 10.698 16.8272 10.4285C15.539 9.64866 14.3233 8.73925 13.144 7.79357C12.3586 7.16398 11.7832 7.10957 11.0678 7.8998C10.0258 9.05016 8.91643 10.1461 7.78114 11.2058C7.15128 11.7939 7.09167 12.2836 7.61784 12.9728C8.58725 14.2398 9.55665 15.5197 10.3861 16.8773C10.6557 17.3204 10.6608 18.0795 10.4924 18.6003C10.0984 19.8258 9.44779 20.9684 9.05381 22.1939C8.77128 23.0722 8.28139 23.4427 7.41048 23.5541C5.95638 23.7432 4.51523 24.0386 3.06112 24.2303C2.1928 24.3443 1.76512 24.6682 1.80919 25.632C1.87917 27.2254 1.86621 28.8266 1.81178 30.4226C1.78327 31.288 2.10467 31.674 2.95485 31.7854C4.49449 31.9875 6.02118 32.2855 7.56082 32.4953C8.33842 32.6016 8.75573 32.9669 9.01752 33.7234C9.45038 34.9826 10.088 36.1744 10.495 37.4414C10.6608 37.9622 10.6531 38.7239 10.3809 39.1643C9.54628 40.522 8.56392 41.7864 7.60488 43.0637C7.14092 43.6803 7.10204 44.1726 7.70338 44.7452C8.89051 45.8748 10.0517 47.0381 11.1766 48.2299C11.765 48.8518 12.2679 48.9062 12.9548 48.375C14.2171 47.3983 15.4949 46.4319 16.8427 45.582C17.2575 45.3204 17.9806 45.2841 18.4627 45.4447C19.7665 45.8774 21.0521 46.4059 22.273 47.033C22.7603 47.2843 23.2838 47.8413 23.4057 48.3517C23.7763 49.9011 23.9137 51.5023 24.2403 53.062C24.3258 53.4688 24.7613 54.0932 25.0697 54.1139C26.6871 54.2201 28.3123 54.1631 29.9919 54.1631V42.1594V42.1646ZM31.9463 13.9444C31.7337 15.9187 31.643 15.9187 29.826 15.6984C24.6939 15.0766 20.4949 16.8281 17.6463 21.142C14.7044 25.5957 14.6888 30.3086 17.5918 34.7857C20.4041 39.1255 24.5902 40.9132 29.7275 40.3251C31.7234 40.0971 31.8582 40.1334 31.8608 42.0558C31.8608 43.2502 31.8608 44.4446 31.8608 45.7738C38.1852 45.1157 42.7108 42.1232 45.365 36.5916C47.7652 31.5911 47.4023 26.6114 44.6652 21.6886C44.3568 21.9166 44.1857 22.0384 44.0224 22.1654C39.87 25.4014 35.7125 28.6349 31.5653 31.8761C29.6964 33.3348 27.6747 33.7416 25.5259 32.6197C23.6364 31.6326 22.6955 29.9822 22.7629 27.855C22.8406 25.4247 24.1807 23.8728 26.3787 22.9737C29.1729 21.8285 31.9567 20.6626 34.7534 19.52C36.6508 18.7454 38.5585 18.0018 40.6917 17.1519C37.9442 15.1647 35.1966 14.0247 31.9489 13.9418L31.9463 13.9444ZM48.3795 16.3539C48.3432 16.284 48.3044 16.2166 48.2681 16.1467C46.1219 16.9887 43.9705 17.8152 41.8296 18.678C36.9151 20.6575 32.0059 22.6525 27.0941 24.6397C25.8707 25.1346 24.9349 25.8963 24.6395 27.2539C24.3284 28.6919 24.8805 30.091 26.0884 30.8579C27.4414 31.7155 28.8203 31.6559 30.0723 30.7024C33.5689 28.0364 37.037 25.3366 40.4973 22.6265C43.1385 20.5564 45.7512 18.45 48.3769 16.3591L48.3795 16.3539ZM41.0234 7.18729C39.8363 9.24448 38.6907 11.2317 37.6124 13.0998C39.209 14.1284 40.6476 15.0637 42.0965 15.9809C42.335 16.1311 42.6823 16.3488 42.8845 16.2762C44.9581 15.5015 47.0135 14.6724 49.1934 13.8123C46.8891 10.9234 44.2738 8.76516 41.0234 7.18729ZM54.0612 27.0959C53.9031 23.2691 52.9492 19.8258 51.0285 16.5534C49.3204 17.9214 47.7186 19.2065 46.3163 20.331C47.0369 22.4789 47.6745 24.4298 48.364 26.3601C48.4676 26.6528 48.8202 27.0518 49.069 27.0622C50.6916 27.1244 52.3194 27.0959 54.0612 27.0959ZM47.1431 38.0425C48.1748 38.6384 49.3982 39.3457 50.7071 40.1023C52.7678 36.5993 53.9342 32.9824 54.0508 29.008H49.1208C48.4573 32.0497 47.8274 34.9282 47.1457 38.0451L47.1431 38.0425ZM41.0545 48.8777C44.5926 47.0925 47.4075 44.7711 49.6729 41.6128C48.3562 40.851 47.1405 40.1463 46.2359 39.6203C43.8461 41.7889 41.6352 43.7969 39.3283 45.8904C39.8 46.7065 40.3988 47.7403 41.0571 48.8777H41.0545ZM31.9152 4.6482V11.9442C33.0531 12.1489 34.1443 12.3691 35.2459 12.522C35.4792 12.5557 35.8732 12.4158 35.982 12.2318C37.1069 10.3586 38.1878 8.45943 39.4683 6.23902C36.8477 5.68716 34.4813 5.1897 31.9126 4.6482H31.9152ZM31.9333 51.3727C34.4994 50.8312 36.8633 50.3338 39.4631 49.7845C38.6803 48.4269 38.0893 47.406 37.5579 46.4811C35.601 46.9138 33.8073 47.3102 31.9333 47.7221V51.3701V51.3727Z" fill="#01A7A4"/>
</g>
<defs>
<clipPath id="clip0_98_681">
<rect width="56" height="56" fill="white"/>
</clipPath>
</defs>
</svg>
