<svg width="61" height="56" viewBox="0 0 61 56" fill="none" xmlns="http://www.w3.org/2000/svg">
<g clip-path="url(#clip0_98_670)">
<path d="M15.6495 50.673H13.7796C10.9748 50.673 8.1716 50.6763 5.36678 50.673C2.1076 50.6681 0.00152766 48.5465 -0.000112588 45.2603C-0.00175284 34.2455 -0.00175284 23.229 -0.000112588 12.2141C-0.000112588 8.92301 2.0994 6.81953 5.37006 6.81788C6.53627 6.81788 7.70413 6.81459 8.87034 6.81788C9.72163 6.82118 9.99719 7.09791 10.0005 7.97257C10.007 9.28704 10.0415 10.6048 9.98571 11.9176C9.95783 12.5666 10.2596 12.5913 10.7517 12.5913C19.6353 12.5815 28.5189 12.5847 37.4024 12.5847C39.6332 12.5847 41.8655 12.5683 44.0963 12.5963C44.631 12.6029 44.8032 12.4513 44.7983 11.9028C44.7737 9.21127 44.7721 6.51809 44.7917 3.82656C44.8114 1.20421 47.0422 -0.538531 49.4599 0.15C50.9492 0.573332 52.0285 1.8911 52.058 3.51194C52.1089 6.24466 52.0794 8.97737 52.0843 11.7117C52.0843 12.2926 52.3724 12.5836 52.9487 12.5847C53.7262 12.5847 54.5053 12.5749 55.2828 12.5913C55.8847 12.6045 56.1669 12.8994 56.1997 13.5072C56.2095 13.6917 56.2029 13.8778 56.2029 14.0623C56.2029 24.4611 56.2029 34.8599 56.2029 45.2587V46.1367C57.3216 46.1367 58.3796 46.1367 59.4359 46.1367C60.7169 46.1367 60.8678 46.2915 60.8678 47.5928C60.8678 49.9977 60.8678 52.401 60.8678 54.8059C60.8678 55.7514 60.6168 55.9985 59.6639 55.9985C45.397 55.9985 31.1301 55.9985 16.8633 55.9985C15.8414 55.9985 15.6528 55.8074 15.6478 54.7647C15.6429 53.4321 15.6478 52.0995 15.6478 50.6714L15.6495 50.673ZM15.6478 48.9962C15.6478 48.4559 15.6478 48.0062 15.6478 47.5582C15.6495 46.2668 15.7774 46.1383 17.047 46.1383C29.2471 46.1383 41.4456 46.1383 53.6458 46.1383C53.923 46.1383 54.2018 46.1383 54.5004 46.1383V14.2221C53.9214 14.2221 53.3702 14.26 52.8273 14.2122C52.227 14.1595 52.0679 14.3835 52.0728 14.9732C52.099 18.4455 52.0925 21.9195 52.0777 25.3934C52.0777 25.7739 52.0367 26.1857 51.8924 26.5316C51.0936 28.4424 50.2538 30.335 49.432 32.2359C49.2614 32.6312 49.0498 32.9722 48.5528 32.9689C48.0608 32.9656 47.8508 32.623 47.6687 32.2359C46.8125 30.4174 45.9334 28.6104 45.1034 26.7804C44.9164 26.3669 44.8032 25.881 44.7999 25.428C44.7753 21.9557 44.7721 18.4817 44.7999 15.0094C44.8049 14.3901 44.6425 14.2105 44.0143 14.2122C32.941 14.2303 21.8677 14.2254 10.7927 14.227C10.5516 14.227 10.3105 14.2468 10.0021 14.2616C10.0021 14.5746 10.0021 14.8365 10.0021 15.0984C10.0021 22.2505 10.0021 29.4027 10.0021 36.5532C10.0021 38.0736 10.0054 39.5956 10.0021 41.116C9.99883 42.0318 9.73803 42.297 8.8441 42.2987C7.61555 42.302 6.38701 42.2921 5.1601 42.302C3.15736 42.3168 1.66966 43.7564 1.6713 45.6623C1.67458 47.5714 3.16228 48.9929 5.17487 48.9962C7.97969 49.0011 10.7829 48.9962 13.5877 48.9962C14.2405 48.9962 14.8933 48.9962 15.6478 48.9962ZM28.9453 47.8432C28.9453 48.451 28.9552 48.983 28.9437 49.5134C28.9306 50.1344 28.6009 50.5215 28.1039 50.5281C27.602 50.5347 27.2674 50.1509 27.2559 49.5299C27.246 48.9814 27.2542 48.4329 27.2542 47.8629H24.8792C24.8792 48.5053 24.9038 49.1 24.871 49.6897C24.8414 50.2085 24.4379 50.5792 23.9885 50.5232C23.4997 50.4622 23.2127 50.1723 23.2012 49.66C23.1897 49.1873 23.2209 48.7129 23.1799 48.2434C23.1667 48.0952 22.9945 47.8448 22.8846 47.8382C22.2203 47.8003 21.5527 47.8184 20.8195 47.8184C20.8195 48.4823 20.8409 49.0538 20.813 49.6238C20.7867 50.1871 20.3996 50.5792 19.9289 50.5215C19.4089 50.4573 19.1317 50.141 19.1383 49.6007C19.1399 49.4162 19.1416 49.2301 19.1366 49.0456C19.1038 47.6405 19.3892 47.8497 17.9048 47.8003C17.3881 47.7839 17.293 47.9996 17.2979 48.4543C17.3176 50.1805 17.3242 51.9068 17.2947 53.6331C17.2864 54.1602 17.4209 54.3414 17.9754 54.3397C31.4861 54.3249 44.9968 54.3282 58.5075 54.3265C58.7224 54.3265 58.9356 54.2969 59.1472 54.2804V47.8119C58.66 47.8119 58.2106 47.7789 57.7727 47.83C57.6267 47.8481 57.4069 48.0721 57.3905 48.222C57.338 48.6898 57.3806 49.1659 57.3577 49.637C57.3314 50.1772 56.9886 50.5545 56.5343 50.5215C56.0078 50.4836 55.7207 50.1723 55.7109 49.6337C55.701 49.1823 55.7273 48.7277 55.6879 48.278C55.6731 48.1182 55.5173 47.8415 55.4205 47.8382C54.7497 47.8184 54.0788 47.8563 53.4063 47.8761C53.3719 48.3818 53.3358 48.8858 53.3013 49.3915C53.3013 49.4113 53.3013 49.4327 53.3013 49.4525C53.2849 50.1344 52.9799 50.5281 52.4697 50.5248C51.958 50.5215 51.6644 50.1311 51.6217 49.4475C51.5873 48.9105 51.7103 48.1446 51.4167 47.9041C51.0805 47.6274 50.362 47.8333 49.8125 47.8003C49.3992 47.7756 49.2024 47.9074 49.2352 48.3538C49.2631 48.7211 49.245 49.0934 49.2385 49.464C49.227 50.1377 48.9104 50.5347 48.397 50.5248C47.8984 50.5149 47.6031 50.1394 47.5572 49.5019C47.5178 48.9484 47.6474 48.1512 47.344 47.9057C46.9913 47.6208 46.2499 47.83 45.6791 47.8036C45.315 47.7871 45.1559 47.9206 45.1739 48.2994C45.1953 48.7294 45.1739 49.1626 45.1772 49.5941C45.1805 50.1344 44.9098 50.4523 44.3882 50.5166C43.9175 50.5742 43.5402 50.1855 43.5025 49.6188C43.4779 49.2499 43.4582 48.8743 43.5025 48.5103C43.5698 47.9288 43.3319 47.7855 42.7808 47.7937C41.1389 47.8168 41.1389 47.7937 41.1192 49.4113C41.111 50.1328 40.7994 50.538 40.2647 50.5232C39.7496 50.5083 39.4445 50.1163 39.4331 49.4343C39.4249 48.9089 39.4331 48.3834 39.4331 47.8464H37.0629C37.0629 48.3719 37.0645 48.8595 37.0629 49.3454C37.0596 50.1229 36.7595 50.5347 36.2083 50.5232C35.6654 50.5116 35.3784 50.0982 35.3735 49.3158C35.3718 48.8315 35.3735 48.3456 35.3735 47.8662H33.0049C33.0049 48.4576 33.0131 48.9896 33.0033 49.5217C32.9918 50.1443 32.6605 50.5281 32.1569 50.5232C31.6583 50.5199 31.3286 50.1328 31.3171 49.5118C31.3056 48.9649 31.3155 48.4164 31.3155 47.8382H28.9486L28.9453 47.8432ZM8.28149 40.5823V8.50133C7.19729 8.50133 6.15737 8.49309 5.1191 8.50297C3.08683 8.52274 1.68606 9.92451 1.68442 11.9621C1.6795 21.7185 1.68114 31.4765 1.68442 41.2329C1.68442 41.4009 1.71395 41.569 1.74019 41.8605C3.72161 40.1079 6.05896 40.7799 8.28313 40.5806L8.28149 40.5823ZM46.414 15.8594C46.414 18.7156 46.4222 21.5735 46.4058 24.4298C46.4025 24.9058 46.5337 25.0854 47.0307 25.0656C47.9509 25.0294 48.8727 25.031 49.7929 25.0656C50.2882 25.0837 50.4949 24.947 50.4654 24.4166C50.426 23.6787 50.4555 22.9374 50.4555 22.1978C50.4555 17.2859 50.4473 12.3739 50.467 7.46194C50.4686 6.9233 50.3292 6.74046 49.7797 6.76847C48.9022 6.81294 48.0181 6.81788 47.1406 6.76847C46.5271 6.73223 46.3959 6.96284 46.4025 7.53771C46.4304 10.3116 46.4156 13.0871 46.4156 15.861L46.414 15.8594ZM46.3992 5.09161C47.7147 5.09161 48.8973 5.09985 50.0799 5.07844C50.1996 5.07679 50.4145 4.88242 50.4145 4.7737C50.4211 4.22354 50.4375 3.6569 50.3259 3.1232C50.1488 2.28148 49.3451 1.70661 48.4774 1.69178C47.6031 1.67531 46.76 2.20901 46.5698 3.04249C46.4238 3.6849 46.4517 4.36684 46.3992 5.09161ZM49.9356 26.7754H46.947C47.4736 27.8906 47.964 28.9283 48.5233 30.111C48.9711 29.0848 49.3516 28.2134 49.7289 27.3388C49.7994 27.174 49.8519 27.0027 49.9356 26.7754Z" fill="#01A7A4"/>
<path d="M39.0526 30.4041C39.0526 30.8143 39.0822 31.2277 39.0461 31.6362C38.9755 32.4302 38.449 32.977 37.6683 33.0347C36.9564 33.0874 36.3971 33.3394 36.0936 34.0131C35.7853 34.6984 36.0067 35.2765 36.4561 35.8284C37.0253 36.5301 36.9876 37.3421 36.3725 37.9961C35.8952 38.5034 35.4031 38.9992 34.8946 39.4769C34.2401 40.0913 33.5037 40.1144 32.7852 39.5757C31.437 38.5644 30.2625 39.047 29.9771 40.7271C29.8131 41.694 29.28 42.1586 28.3074 42.1717C27.7349 42.1783 27.1608 42.175 26.5884 42.1717C25.3746 42.1668 24.894 41.7468 24.7136 40.5311C24.5594 39.5033 23.8475 38.9136 22.8929 39.0865C22.5895 39.1409 22.2877 39.3237 22.0334 39.5148C21.1985 40.1358 20.4818 40.1144 19.7322 39.3863C19.2762 38.9432 18.8251 38.4935 18.3872 38.034C17.7376 37.352 17.6868 36.5465 18.2756 35.8218C18.725 35.2667 18.9366 34.6868 18.625 34.0049C18.3297 33.3575 17.795 33.094 17.1045 33.0413C16.2778 32.9787 15.73 32.4516 15.6807 31.6247C15.6332 30.8274 15.6332 30.022 15.6775 29.2231C15.7234 28.3929 16.2696 27.8493 17.0864 27.79C17.8049 27.7389 18.3511 27.4622 18.6414 26.7852C18.9268 26.123 18.7201 25.5597 18.2838 25.0227C17.6884 24.2897 17.7294 23.4842 18.3724 22.8089C18.8382 22.318 19.3155 21.837 19.8076 21.3725C20.49 20.7284 21.2248 20.7037 21.9645 21.2704C23.2406 22.2472 24.479 21.7645 24.7284 20.1914C24.8989 19.1109 25.4189 18.6628 26.5097 18.6562C27.0001 18.653 27.4922 18.6562 27.9826 18.6562C29.3817 18.6562 29.8016 19.012 30.0214 20.3891C30.1346 21.0925 30.566 21.5998 31.1942 21.7316C31.7224 21.8419 32.1931 21.7316 32.6311 21.3857C33.5775 20.6378 34.2352 20.6938 35.1029 21.5537C35.5113 21.9589 35.9214 22.3592 36.3183 22.7743C36.9941 23.4826 37.045 24.2749 36.4299 25.0359C35.9936 25.5745 35.7967 26.1395 36.0854 26.8C36.3692 27.4474 36.8924 27.7356 37.5879 27.7867C38.472 27.8526 38.9952 28.4011 39.0592 29.2972C39.0854 29.6645 39.0641 30.0368 39.0641 30.4058C39.0608 30.4058 39.0559 30.4058 39.0526 30.4058V30.4041ZM19.6305 23.9619C19.783 24.2073 19.9372 24.4248 20.0618 24.657C21.0148 26.4376 20.0996 28.78 18.151 29.2675C17.3669 29.4636 17.216 29.8095 17.303 30.4766C17.3161 30.5771 17.3177 30.6841 17.303 30.7846C17.2357 31.2228 17.4342 31.3793 17.8557 31.4715C19.2614 31.7746 20.0815 32.6838 20.3784 34.0856C20.6015 35.1316 20.2406 36.0211 19.6666 36.7969C20.0996 37.268 20.5096 37.7144 20.9181 38.1591C23.0766 36.5037 25.9979 37.5365 26.4605 40.4339H28.3041C28.514 38.0554 31.2287 36.2912 33.8137 38.1591C34.2385 37.7342 34.6666 37.3042 35.1029 36.8677C34.9733 36.6717 34.8552 36.507 34.7503 36.334C33.6546 34.5238 34.5912 32.0299 36.6316 31.5341C37.314 31.3677 37.5157 31.1058 37.4255 30.4782C37.4058 30.3366 37.4042 30.1883 37.4255 30.0483C37.4895 29.6085 37.291 29.4537 36.8711 29.3631C35.4917 29.0682 34.6748 28.1787 34.3582 26.8083C34.1106 25.7409 34.4665 24.83 35.0603 24.0377C34.6305 23.5682 34.2205 23.1202 33.812 22.6754C31.537 24.3819 28.6699 23.163 28.268 20.394H26.4244C26.18 22.8649 23.4326 24.5038 20.9148 22.6705C20.4916 23.0971 20.0635 23.527 19.6288 23.9652L19.6305 23.9619Z" fill="#01A7A4"/>
<path d="M33.4233 30.4452C33.402 33.8401 30.6857 36.5284 27.3019 36.5069C23.9706 36.4855 21.2789 33.7363 21.3035 30.3826C21.3281 26.9878 24.0427 24.2995 27.4266 24.3209C30.7563 24.3407 33.4463 27.0882 33.4249 30.4452H33.4233ZM27.3773 34.8202C29.8082 34.8169 31.8044 32.8024 31.7765 30.3843C31.747 27.9415 29.7688 25.9994 27.3183 26.0093C24.9235 26.0192 22.9503 28.0074 22.9487 30.4139C22.9487 32.8452 24.9383 34.8251 27.3773 34.8219V34.8202Z" fill="#01A7A4"/>
</g>
<defs>
<clipPath id="clip0_98_670">
<rect width="60.8696" height="56" fill="white"/>
</clipPath>
</defs>
</svg>
