<svg width="56" height="56" viewBox="0 0 56 56" fill="none" xmlns="http://www.w3.org/2000/svg">
<g clip-path="url(#clip0_98_644)">
<path d="M48.7659 52.4281C48.7659 53.1201 48.7659 53.776 48.7659 54.4333C48.7659 55.8309 48.5985 55.9998 47.2265 55.9998C35.8658 55.9998 24.505 55.9998 13.1443 55.9998C11.5642 55.9998 9.98411 56.0013 8.40401 55.9998C7.52501 55.9983 7.22949 55.6968 7.22648 54.8072C7.22346 54.0202 7.22648 53.2347 7.22648 52.4085C5.06289 52.3241 3.24909 51.5401 1.82429 49.9419C0.737221 48.7222 0.131115 47.2854 0.0180356 45.6571C-0.191538 42.6523 1.54989 39.1499 5.767 38.0568C5.59361 37.6241 5.40062 37.2035 5.25588 36.7678C4.9483 35.842 4.63017 34.9178 4.38441 33.974C4.2653 33.5187 4.07231 33.389 3.61849 33.4101C2.77416 33.4493 1.92682 33.4267 1.07948 33.4192C0.339181 33.4132 0.00597378 33.0875 0.00446606 32.3532C-0.00156485 29.4555 -5.71251e-05 26.5592 0.00446606 23.6614C0.00446606 22.9197 0.333151 22.591 1.06741 22.5849C1.98863 22.5774 2.91136 22.5955 3.83258 22.5699C3.98788 22.5653 4.2457 22.4251 4.27586 22.3045C4.91212 19.7098 5.93888 17.2839 7.39082 14.9591C6.58268 14.1615 5.77906 13.376 4.98298 12.5814C4.34672 11.9467 4.34823 11.5427 4.98298 10.9079C6.96263 8.9238 8.94378 6.94119 10.9279 4.9616C11.5356 4.35551 11.9532 4.35702 12.5623 4.96461C13.3614 5.75917 14.153 6.56276 14.8903 7.30605C16.3211 6.62156 17.669 5.91596 19.0667 5.33098C20.0663 4.91185 21.1277 4.63594 22.1741 4.33742C22.4892 4.24696 22.5947 4.12785 22.5872 3.8052C22.5676 2.9021 22.5751 1.999 22.5827 1.09589C22.5887 0.326971 22.9114 0.0058337 23.6894 0.0058337C26.5676 0.00131064 29.4443 0.00131064 32.3226 0.0058337C33.0915 0.0058337 33.4097 0.333002 33.4157 1.11248C33.4217 2.01558 33.4021 2.91868 33.4308 3.82028C33.4368 3.98311 33.5996 4.24997 33.7368 4.28314C36.3075 4.92994 38.7214 5.94009 41.0297 7.38596C41.7836 6.62458 42.5329 5.86621 43.2853 5.11237C44.0859 4.31028 44.4161 4.30726 45.2016 5.09277C47.13 7.0211 49.0599 8.94943 50.9867 10.8793C51.6486 11.5427 51.6532 11.9437 51.0018 12.5965C50.2178 13.3805 49.4278 14.1585 48.6528 14.9274C49.182 15.9481 49.7625 16.8995 50.1801 17.9171C50.7274 19.2499 51.1843 20.625 51.6019 22.006C51.7481 22.4885 51.9442 22.6121 52.407 22.594C53.2514 22.5608 54.1002 22.5774 54.946 22.5865C55.6501 22.594 55.9894 22.9242 55.9909 23.6252C55.9969 26.5411 55.9969 29.457 55.9909 32.3728C55.9909 33.0769 55.6517 33.4116 54.9536 33.4192C54.0324 33.4297 53.1096 33.4101 52.1884 33.4328C52.0271 33.4373 51.7662 33.5534 51.724 33.6755C51.2385 35.1289 50.7862 36.5944 50.3128 38.0945C52.3512 38.583 53.9811 39.7394 55.0516 41.615C55.8296 42.9764 56.1552 44.457 55.9336 46.0144C55.4059 49.7233 52.9166 51.9517 48.7674 52.4296L48.7659 52.4281ZM25.2875 10.9939C24.1718 11.3135 23.0953 11.5231 22.0972 11.9256C15.5431 14.5716 11.7361 19.3902 10.9355 26.4401C10.4771 30.4747 11.522 34.1941 13.7791 37.5668C13.9027 37.7508 14.1379 37.8578 14.3218 38.001C14.45 35.2736 14.4485 32.6804 14.4515 30.0857C14.4515 29.2037 14.7515 28.9067 15.6411 28.9052C19.0636 28.9037 22.4877 28.9037 25.9102 28.9052C26.7938 28.9052 27.0923 29.2052 27.0923 30.0917C27.0953 32.4995 27.0923 34.9073 27.0923 37.315C27.0923 37.5126 27.0923 37.7116 27.0923 37.9076H28.8985V37.2743C28.8985 34.8666 28.897 32.4588 28.8985 30.051C28.8985 29.2293 29.2091 28.9067 30.0082 28.9067C33.4881 28.9037 36.9679 28.9022 40.4477 28.9067C41.2167 28.9067 41.5378 29.2354 41.5393 30.0148C41.5439 32.4226 41.5408 34.8304 41.5408 37.2382C41.5408 37.4613 41.5408 37.6829 41.5408 37.9061C41.5951 37.9468 41.6494 37.9875 41.7037 38.0282C41.8936 37.8503 42.1258 37.6995 42.2691 37.4884C46.2691 31.5572 46.0972 23.6041 41.8183 17.8689C39.041 14.1464 35.3381 11.9015 30.7334 11.0723C30.7214 11.2607 30.7063 11.4085 30.7048 11.5562C30.7033 12.7413 30.7063 13.9263 30.7018 15.1113C30.6988 15.9496 30.3882 16.2527 29.5363 16.2602C29.3373 16.2617 29.1368 16.2602 28.9377 16.2602V18.1147C29.9555 17.8237 30.548 18.4011 31.1601 19.0343C32.5653 20.4878 32.588 20.4727 32.5005 22.4734C32.49 22.7041 32.4312 22.9905 32.2834 23.1473C31.6924 23.7745 31.0591 24.3595 30.3565 25.0425C30.1786 24.8314 30.0158 24.5992 29.8122 24.4108C29.5936 24.2102 29.3358 24.0519 29.0177 23.8182C29.5378 23.3297 29.9117 22.989 30.2721 22.6347C30.9068 22.009 30.8511 21.3909 30.2751 20.7018C29.7157 20.0339 29.081 19.7264 28.2246 19.8726C28.1326 19.8877 28.0346 19.8892 27.9426 19.8726C26.9083 19.6781 26.15 20.0973 25.5258 20.8994C25.2001 21.3185 25.1639 22.0874 25.5469 22.4689C25.969 22.888 26.4048 23.2936 26.8254 23.6931C26.3565 24.1756 25.9645 24.5781 25.5604 24.9942C24.9302 24.3746 24.2985 23.7866 23.7105 23.1579C23.5627 22.9996 23.4979 22.7161 23.4873 22.4869C23.3938 20.4802 23.3999 20.4802 24.8277 19.0539C25.0267 18.8549 25.1986 18.6092 25.4323 18.4659C25.7218 18.2895 26.0535 18.1689 26.3837 18.08C26.5887 18.0242 26.8209 18.0694 27.0546 18.0694V16.2798C26.9099 16.2738 26.7998 16.2647 26.6897 16.2632C25.4866 16.2466 25.2845 16.0431 25.2845 14.8445C25.2845 13.6052 25.2845 12.3658 25.2845 10.9969L25.2875 10.9939ZM54.1439 31.613V24.3866C53.1835 24.3866 52.2638 24.3866 51.3426 24.3866C50.5118 24.3851 50.2751 24.2057 50.1017 23.3991C49.5001 20.5948 48.4327 17.985 46.8541 15.5878C46.4033 14.9018 46.4455 14.5927 47.0305 14.0062C47.7723 13.2644 48.5186 12.5287 49.2272 11.8261C47.525 10.1239 45.8695 8.46848 44.1643 6.76328C43.4511 7.48396 42.7033 8.24685 41.9479 9.00069C41.4172 9.52989 41.0749 9.57361 40.4538 9.16352C38.0399 7.57442 35.4195 6.48738 32.594 5.88883C31.7889 5.71846 31.6094 5.48024 31.6079 4.64649C31.6064 3.71323 31.6079 2.77847 31.6079 1.84973H24.3829C24.3829 2.83124 24.3859 3.77053 24.3829 4.70982C24.3799 5.46215 24.1779 5.726 23.4481 5.88129C20.6241 6.47984 17.9992 7.55482 15.5838 9.14091C14.9023 9.58869 14.5872 9.54195 14.0022 8.95848C13.2604 8.2182 12.5216 7.4734 11.8296 6.77685C10.1228 8.473 8.46281 10.1239 6.7621 11.814C7.47978 12.5287 8.2261 13.2659 8.9664 14.0092C9.54386 14.5882 9.58607 14.9063 9.13375 15.5938C7.56572 17.9759 6.50277 20.5662 5.89968 23.3509C5.70971 24.2268 5.49561 24.3851 4.58494 24.3866C3.67126 24.3866 2.75607 24.3866 1.85294 24.3866V31.613C2.83749 31.613 3.7768 31.61 4.71611 31.613C5.46395 31.616 5.669 31.8421 5.89214 32.5508C6.41985 34.2303 6.99429 35.8963 7.57326 37.5608C7.62603 37.7131 7.83711 37.9136 7.97883 37.9166C9.23176 37.9437 10.4862 37.9332 11.8401 37.9332C10.165 35.156 9.23628 32.2281 9.06289 29.0801C8.88799 25.9064 9.46545 22.8669 10.8179 19.9842C12.1613 17.1196 14.1047 14.7389 16.6272 12.8317C23.1903 7.86691 32.3181 7.75534 39.0094 12.5724C42.4138 15.0224 44.8036 18.2428 46.055 22.2487C47.7632 27.7126 47.0712 32.9307 44.1794 37.9332C45.5167 37.9332 46.7727 37.9453 48.0271 37.9166C48.1673 37.9136 48.3723 37.707 48.4266 37.5518C48.9996 35.9054 49.574 34.259 50.0927 32.596C50.3369 31.815 50.5118 31.613 51.3441 31.6115C52.2638 31.61 53.1835 31.6115 54.1454 31.6115L54.1439 31.613ZM3.20839 48.7735C4.46131 50.0731 5.86651 50.5857 7.50692 50.5842C21.1654 50.5767 34.8239 50.5797 48.4824 50.5797C48.6513 50.5797 48.8216 50.5797 48.9905 50.5721C52.3874 50.444 54.8495 47.1618 54.0218 43.8659C53.3916 41.3541 51.2476 39.7424 48.5186 39.7424C34.8405 39.7409 21.1639 39.7424 7.48581 39.7424C7.29734 39.7424 7.10888 39.7394 6.92192 39.753C5.63884 39.8419 4.51559 40.3108 3.56873 41.1838C3.47224 41.2727 3.40288 41.3888 3.27774 41.5486C6.41834 41.5486 9.46545 41.5441 12.5126 41.5501C14.6445 41.5547 16.2563 43.1242 16.2532 45.1701C16.2487 47.213 14.6339 48.7629 12.493 48.7735C11.4587 48.778 10.4229 48.7735 9.38856 48.7735C7.37876 48.7735 5.36896 48.7735 3.20688 48.7735H3.20839ZM46.9355 52.4266H9.05987V54.1619H46.9355V52.4266ZM25.2468 37.9091V30.7385H23.4813C23.4813 31.5693 23.4843 32.3728 23.4813 33.1764C23.4768 34.0147 23.1662 34.3208 22.3143 34.3223C21.28 34.3253 20.2457 34.3268 19.2114 34.3223C18.3731 34.3193 18.0685 34.0072 18.0655 33.1553C18.0625 32.3532 18.0655 31.5512 18.0655 30.7521H16.2879V37.9091H25.2498H25.2468ZM37.9298 30.731C37.9298 31.5964 37.9344 32.403 37.9298 33.2096C37.9238 33.9876 37.6057 34.3147 36.8397 34.3193C35.7677 34.3268 34.6958 34.3253 33.6238 34.3193C32.8262 34.3147 32.5171 33.9936 32.5126 33.1734C32.508 32.3698 32.5126 31.5662 32.5126 30.7415H30.747V37.9061H39.7044V30.7295H37.9313L37.9298 30.731ZM9.52124 43.3548C7.09229 43.3548 4.76436 43.3488 2.43643 43.3699C2.29772 43.3699 2.08211 43.5569 2.03537 43.7001C1.73835 44.6153 1.75494 45.5425 1.97054 46.4788C2.05799 46.8572 2.21781 46.9838 2.61736 46.9793C4.75833 46.9567 6.8993 46.9688 9.04027 46.9673C9.17748 46.9673 9.31619 46.9522 9.5137 46.9401C8.87593 45.734 8.8895 44.5791 9.52124 43.3563V43.3548ZM14.4485 45.1565C14.447 44.1765 13.6343 43.3624 12.6543 43.3563C11.6713 43.3503 10.8526 44.1539 10.8405 45.1369C10.8284 46.141 11.6607 46.9763 12.6618 46.9657C13.6404 46.9567 14.45 46.1365 14.4485 45.1565ZM28.8654 14.4299V10.8943H27.0938V14.4299H28.8654ZM21.6464 30.743H19.9065V32.4739H21.6464V30.743ZM34.3445 32.4784H36.0814V30.737H34.3445V32.4784Z" fill="#01A7A4"/>
<path d="M21.6539 41.5503C23.6502 41.5413 25.2815 43.162 25.2846 45.1552C25.2876 47.1484 23.6592 48.7767 21.666 48.7737C19.6999 48.7706 18.0776 47.1589 18.064 45.1959C18.0505 43.1982 19.6637 41.5594 21.6539 41.5503ZM23.4783 45.1507C23.4723 44.1707 22.6581 43.3596 21.6781 43.3565C20.6965 43.355 19.8794 44.1616 19.8703 45.1431C19.8613 46.1473 20.6965 46.9795 21.6992 46.9659C22.6777 46.9539 23.4843 46.1292 23.4783 45.1507Z" fill="#01A7A4"/>
<path d="M34.3158 45.1567C34.3173 47.1484 32.6874 48.7767 30.6942 48.7721C28.7055 48.7676 27.0847 47.1303 27.0953 45.1356C27.1058 43.1696 28.7206 41.5563 30.6882 41.5503C32.6844 41.5428 34.3143 43.1651 34.3158 45.1582V45.1567ZM32.5095 45.1808C32.5201 44.2008 31.718 43.3746 30.7394 43.3565C29.7579 43.3384 28.9256 44.133 28.9015 45.113C28.8759 46.1171 29.6976 46.9629 30.6987 46.9659C31.6772 46.9689 32.499 46.1593 32.5095 45.1808Z" fill="#01A7A4"/>
<path d="M43.3457 45.1809C43.3367 47.1695 41.6963 48.7872 39.7 48.7722C37.7143 48.7571 36.1041 47.1077 36.1252 45.1115C36.1463 43.1485 37.7716 41.5458 39.7422 41.5488C41.7355 41.5518 43.3548 43.1847 43.3457 45.1809ZM39.7121 43.3566C38.7291 43.3686 37.9269 44.1843 37.9315 45.1703C37.936 46.1503 38.7502 46.9629 39.7302 46.966C40.7313 46.969 41.5591 46.1262 41.5395 45.1236C41.5199 44.1451 40.6921 43.3445 39.7121 43.3566Z" fill="#01A7A4"/>
<path d="M52.3753 45.1552C52.3784 47.1469 50.7485 48.7752 48.7553 48.7721C46.7666 48.7676 45.1443 47.1303 45.1548 45.1371C45.1654 43.1696 46.7787 41.5579 48.7462 41.5503C50.7425 41.5428 52.3738 43.1635 52.3753 45.1567V45.1552ZM50.5691 45.1567C50.5676 44.1767 49.7549 43.3611 48.7749 43.3565C47.7919 43.3505 46.9732 44.1541 46.9611 45.1371C46.949 46.1412 47.7798 46.9765 48.7824 46.9659C49.7609 46.9569 50.5706 46.1367 50.5691 45.1567Z" fill="#01A7A4"/>
</g>
<defs>
<clipPath id="clip0_98_644">
<rect width="56" height="56" fill="white"/>
</clipPath>
</defs>
</svg>
